<?xml version="1.0" encoding="UTF-8" standalone="no"?>
<svg width="270.933mm" height="206.904mm"
 xmlns="http://www.w3.org/2000/svg" xmlns:xlink="http://www.w3.org/1999/xlink"  version="1.2" baseProfile="tiny">
<title>Qt Svg Document</title>
<desc>Generated with Qt</desc>
<defs>
</defs>
<g fill="none" stroke="black" stroke-width="1" fill-rule="evenodd" stroke-linecap="square" stroke-linejoin="bevel" >

<g fill="#ffffff" fill-opacity="0" stroke="none" transform="matrix(1,0,0,1,0,0)"
font-family="Ubuntu" font-size="14.6667" font-weight="400" font-style="normal" 
>
<path vector-effect="non-scaling-stroke" fill-rule="evenodd" d="M4,4 L1018,4 L1018,772 L4,772 L4,4"/>
</g>

<g fill="none" stroke="none" transform="matrix(1,0,0,1,0,0)"
font-family="Ubuntu" font-size="14.6667" font-weight="400" font-style="normal" 
>
<path vector-effect="non-scaling-stroke" fill-rule="evenodd" d="M4,4 L1018,4 L1018,772 L4,772 L4,4"/>
</g>

<g fill="none" stroke="#000000" stroke-opacity="1" stroke-width="1" stroke-linecap="square" stroke-linejoin="bevel" transform="matrix(1,0,0,1,0,0)"
font-family="Ubuntu" font-size="14.6667" font-weight="400" font-style="normal" 
>
</g>

<g fill="#ffffff" fill-opacity="0" stroke="none" transform="matrix(1,0,0,1,0,0)"
font-family="Ubuntu" font-size="14.6667" font-weight="400" font-style="normal" 
>
<path vector-effect="non-scaling-stroke" fill-rule="evenodd" d="M56,39 L1010,39 L1010,719 L56,719 L56,39"/>
</g>

<g fill="none" stroke="#000000" stroke-opacity="1" stroke-width="1" stroke-linecap="square" stroke-linejoin="bevel" transform="matrix(1,0,0,1,0,0)"
font-family="Ubuntu" font-size="14.6667" font-weight="400" font-style="normal" 
>
</g>

<g fill="none" stroke="#000000" stroke-opacity="1" stroke-width="1" stroke-linecap="square" stroke-linejoin="bevel" transform="matrix(1,0,0,1,0,0)"
font-family="Ubuntu" font-size="14.6667" font-weight="400" font-style="normal" 
>
</g>

<g fill="none" stroke="#000000" stroke-opacity="1" stroke-width="1" stroke-linecap="square" stroke-linejoin="bevel" transform="matrix(1,0,0,1,0,0)"
font-family="Ubuntu" font-size="14.6667" font-weight="400" font-style="normal" 
>
</g>

<g fill="none" stroke="#000000" stroke-opacity="1" stroke-width="1" stroke-linecap="square" stroke-linejoin="bevel" transform="matrix(1,0,0,1,0,0)"
font-family="Ubuntu" font-size="14.6667" font-weight="400" font-style="normal" 
>
</g>

<g fill="none" stroke="#000000" stroke-opacity="1" stroke-width="1" stroke-linecap="square" stroke-linejoin="miter" stroke-miterlimit="2" transform="matrix(1,0,0,1,0,0)"
font-family="Ubuntu" font-size="14.6667" font-weight="400" font-style="normal" 
>
<polyline fill="none" vector-effect="non-scaling-stroke" points="135.5,676.5 215,676.5 294.5,676.5 374,549 453.5,506.5 533,421.5 612.5,336.5 692,294 771.5,209 851,124 " />
</g>

<g fill="none" stroke="#000000" stroke-opacity="1" stroke-width="1" stroke-linecap="square" stroke-linejoin="bevel" transform="matrix(1,0,0,1,0,0)"
font-family="Ubuntu" font-size="14.6667" font-weight="400" font-style="normal" 
>
</g>

<g fill="none" stroke="#000000" stroke-opacity="1" stroke-width="1" stroke-linecap="square" stroke-linejoin="bevel" transform="matrix(1,0,0,1,0,0)"
font-family="Ubuntu" font-size="14.6667" font-weight="400" font-style="normal" 
>
</g>

<g fill="none" stroke="#000000" stroke-opacity="1" stroke-width="1" stroke-linecap="square" stroke-linejoin="bevel" transform="matrix(1,0,0,1,0,0)"
font-family="Ubuntu" font-size="14.6667" font-weight="400" font-style="normal" 
>
</g>

<g fill="none" stroke="#ff0000" stroke-opacity="1" stroke-width="1" stroke-linecap="square" stroke-linejoin="miter" stroke-miterlimit="2" transform="matrix(1,0,0,1,0,0)"
font-family="Ubuntu" font-size="14.6667" font-weight="400" font-style="normal" 
>
<polyline fill="none" vector-effect="non-scaling-stroke" points="135.5,634 215,634 294.5,634 374,591.5 453.5,549 533,549 612.5,506.5 692,464 771.5,421.5 851,379 " />
</g>

<g fill="none" stroke="#000000" stroke-opacity="1" stroke-width="1" stroke-linecap="square" stroke-linejoin="bevel" transform="matrix(1,0,0,1,0,0)"
font-family="Ubuntu" font-size="14.6667" font-weight="400" font-style="normal" 
>
</g>

<g fill="none" stroke="#000000" stroke-opacity="1" stroke-width="1" stroke-linecap="square" stroke-linejoin="bevel" transform="matrix(1,0,0,1,0,0)"
font-family="Ubuntu" font-size="14.6667" font-weight="400" font-style="normal" 
>
</g>

<g fill="none" stroke="#000000" stroke-opacity="1" stroke-width="1" stroke-linecap="square" stroke-linejoin="bevel" transform="matrix(1,0,0,1,0,0)"
font-family="Ubuntu" font-size="14.6667" font-weight="400" font-style="normal" 
>
</g>

<g fill="none" stroke="#171717" stroke-opacity="1" stroke-width="1" stroke-linecap="square" stroke-linejoin="bevel" transform="matrix(1,0,0,1,0,0)"
font-family="Ubuntu" font-size="18.6667" font-weight="700" font-style="normal" 
>
</g>

<g fill="none" stroke="#171717" stroke-opacity="1" stroke-width="1" stroke-linecap="square" stroke-linejoin="bevel" transform="matrix(1,0,0,1,0,0)"
font-family="Ubuntu" font-size="18.9171" font-weight="700" font-style="normal" 
>
<text fill="#171717" fill-opacity="1" stroke="none" xml:space="preserve" x="467.781" y="22" font-family="Ubuntu" font-size="18.9171" font-weight="700" font-style="normal" 
 >Iteration Times</text>
</g>

<g fill="none" stroke="#171717" stroke-opacity="1" stroke-width="1" stroke-linecap="square" stroke-linejoin="bevel" transform="matrix(1,0,0,1,0,0)"
font-family="Ubuntu" font-size="18.6667" font-weight="700" font-style="normal" 
>
</g>

<g fill="none" stroke="#171717" stroke-opacity="1" stroke-width="1" stroke-linecap="square" stroke-linejoin="bevel" transform="matrix(0,-1,1,0,4,726)"
font-family="Ubuntu" font-size="12.2405" font-weight="630" font-style="normal" 
>
</g>

<g fill="none" stroke="#000000" stroke-opacity="1" stroke-width="1" stroke-linecap="square" stroke-linejoin="bevel" transform="matrix(0,-1,1,0,4,726)"
font-family="Ubuntu" font-size="17.8043" font-weight="700" font-style="normal" 
>
<text fill="#000000" fill-opacity="1" stroke="none" xml:space="preserve" x="284.562" y="17" font-family="Ubuntu" font-size="17.8043" font-weight="700" font-style="normal" 
 >Iteration Times</text>
</g>

<g fill="none" stroke="#171717" stroke-opacity="1" stroke-width="1" stroke-linecap="square" stroke-linejoin="bevel" transform="matrix(0,-1,1,0,4,726)"
font-family="Ubuntu" font-size="12.2405" font-weight="630" font-style="normal" 
>
</g>

<g fill="none" stroke="#171717" stroke-opacity="1" stroke-width="1" stroke-linecap="square" stroke-linejoin="bevel" transform="matrix(1,0,0,1,0,0)"
font-family="Ubuntu" font-size="18.6667" font-weight="700" font-style="normal" 
>
</g>

<g fill="none" stroke="#171717" stroke-opacity="1" stroke-width="1" stroke-linecap="square" stroke-linejoin="bevel" transform="matrix(1,0,0,1,0,0)"
font-family="Ubuntu" font-size="12.2405" font-weight="630" font-style="normal" 
>
</g>

<g fill="none" stroke="#171717" stroke-opacity="1" stroke-width="1" stroke-linecap="square" stroke-linejoin="bevel" transform="matrix(1,0,0,1,0,0)"
font-family="Ubuntu" font-size="12.2405" font-weight="630" font-style="normal" 
>
</g>

<g fill="none" stroke="#171717" stroke-opacity="1" stroke-width="1" stroke-linecap="square" stroke-linejoin="bevel" transform="matrix(1,0,0,1,35,711)"
font-family="Ubuntu" font-size="12.2405" font-weight="630" font-style="normal" 
>
<text fill="#171717" fill-opacity="1" stroke="none" xml:space="preserve" x="0" y="12" font-family="Ubuntu" font-size="12.2405" font-weight="630" font-style="normal" 
 >2</text>
</g>

<g fill="none" stroke="#171717" stroke-opacity="1" stroke-width="1" stroke-linecap="square" stroke-linejoin="bevel" transform="matrix(1,0,0,1,35,711)"
font-family="Ubuntu" font-size="12.2405" font-weight="630" font-style="normal" 
>
</g>

<g fill="none" stroke="#171717" stroke-opacity="1" stroke-width="1" stroke-linecap="square" stroke-linejoin="bevel" transform="matrix(1,0,0,1,0,0)"
font-family="Ubuntu" font-size="12.2405" font-weight="630" font-style="normal" 
>
</g>

<g fill="none" stroke="#171717" stroke-opacity="1" stroke-width="1" stroke-linecap="square" stroke-linejoin="bevel" transform="matrix(1,0,0,1,35,626)"
font-family="Ubuntu" font-size="12.2405" font-weight="630" font-style="normal" 
>
<text fill="#171717" fill-opacity="1" stroke="none" xml:space="preserve" x="0" y="12" font-family="Ubuntu" font-size="12.2405" font-weight="630" font-style="normal" 
 >4</text>
</g>

<g fill="none" stroke="#171717" stroke-opacity="1" stroke-width="1" stroke-linecap="square" stroke-linejoin="bevel" transform="matrix(1,0,0,1,35,626)"
font-family="Ubuntu" font-size="12.2405" font-weight="630" font-style="normal" 
>
</g>

<g fill="none" stroke="#171717" stroke-opacity="1" stroke-width="1" stroke-linecap="square" stroke-linejoin="bevel" transform="matrix(1,0,0,1,0,0)"
font-family="Ubuntu" font-size="12.2405" font-weight="630" font-style="normal" 
>
</g>

<g fill="none" stroke="#171717" stroke-opacity="1" stroke-width="1" stroke-linecap="square" stroke-linejoin="bevel" transform="matrix(1,0,0,1,35,541)"
font-family="Ubuntu" font-size="12.2405" font-weight="630" font-style="normal" 
>
<text fill="#171717" fill-opacity="1" stroke="none" xml:space="preserve" x="0" y="12" font-family="Ubuntu" font-size="12.2405" font-weight="630" font-style="normal" 
 >6</text>
</g>

<g fill="none" stroke="#171717" stroke-opacity="1" stroke-width="1" stroke-linecap="square" stroke-linejoin="bevel" transform="matrix(1,0,0,1,35,541)"
font-family="Ubuntu" font-size="12.2405" font-weight="630" font-style="normal" 
>
</g>

<g fill="none" stroke="#171717" stroke-opacity="1" stroke-width="1" stroke-linecap="square" stroke-linejoin="bevel" transform="matrix(1,0,0,1,0,0)"
font-family="Ubuntu" font-size="12.2405" font-weight="630" font-style="normal" 
>
</g>

<g fill="none" stroke="#171717" stroke-opacity="1" stroke-width="1" stroke-linecap="square" stroke-linejoin="bevel" transform="matrix(1,0,0,1,35,456)"
font-family="Ubuntu" font-size="12.2405" font-weight="630" font-style="normal" 
>
<text fill="#171717" fill-opacity="1" stroke="none" xml:space="preserve" x="0" y="12" font-family="Ubuntu" font-size="12.2405" font-weight="630" font-style="normal" 
 >8</text>
</g>

<g fill="none" stroke="#171717" stroke-opacity="1" stroke-width="1" stroke-linecap="square" stroke-linejoin="bevel" transform="matrix(1,0,0,1,35,456)"
font-family="Ubuntu" font-size="12.2405" font-weight="630" font-style="normal" 
>
</g>

<g fill="none" stroke="#171717" stroke-opacity="1" stroke-width="1" stroke-linecap="square" stroke-linejoin="bevel" transform="matrix(1,0,0,1,0,0)"
font-family="Ubuntu" font-size="12.2405" font-weight="630" font-style="normal" 
>
</g>

<g fill="none" stroke="#171717" stroke-opacity="1" stroke-width="1" stroke-linecap="square" stroke-linejoin="bevel" transform="matrix(1,0,0,1,28,371)"
font-family="Ubuntu" font-size="12.2405" font-weight="630" font-style="normal" 
>
<text fill="#171717" fill-opacity="1" stroke="none" xml:space="preserve" x="0" y="12" font-family="Ubuntu" font-size="12.2405" font-weight="630" font-style="normal" 
 >10</text>
</g>

<g fill="none" stroke="#171717" stroke-opacity="1" stroke-width="1" stroke-linecap="square" stroke-linejoin="bevel" transform="matrix(1,0,0,1,28,371)"
font-family="Ubuntu" font-size="12.2405" font-weight="630" font-style="normal" 
>
</g>

<g fill="none" stroke="#171717" stroke-opacity="1" stroke-width="1" stroke-linecap="square" stroke-linejoin="bevel" transform="matrix(1,0,0,1,0,0)"
font-family="Ubuntu" font-size="12.2405" font-weight="630" font-style="normal" 
>
</g>

<g fill="none" stroke="#171717" stroke-opacity="1" stroke-width="1" stroke-linecap="square" stroke-linejoin="bevel" transform="matrix(1,0,0,1,28,286)"
font-family="Ubuntu" font-size="12.2405" font-weight="630" font-style="normal" 
>
<text fill="#171717" fill-opacity="1" stroke="none" xml:space="preserve" x="0" y="12" font-family="Ubuntu" font-size="12.2405" font-weight="630" font-style="normal" 
 >12</text>
</g>

<g fill="none" stroke="#171717" stroke-opacity="1" stroke-width="1" stroke-linecap="square" stroke-linejoin="bevel" transform="matrix(1,0,0,1,28,286)"
font-family="Ubuntu" font-size="12.2405" font-weight="630" font-style="normal" 
>
</g>

<g fill="none" stroke="#171717" stroke-opacity="1" stroke-width="1" stroke-linecap="square" stroke-linejoin="bevel" transform="matrix(1,0,0,1,0,0)"
font-family="Ubuntu" font-size="12.2405" font-weight="630" font-style="normal" 
>
</g>

<g fill="none" stroke="#171717" stroke-opacity="1" stroke-width="1" stroke-linecap="square" stroke-linejoin="bevel" transform="matrix(1,0,0,1,28,201)"
font-family="Ubuntu" font-size="12.2405" font-weight="630" font-style="normal" 
>
<text fill="#171717" fill-opacity="1" stroke="none" xml:space="preserve" x="0" y="12" font-family="Ubuntu" font-size="12.2405" font-weight="630" font-style="normal" 
 >14</text>
</g>

<g fill="none" stroke="#171717" stroke-opacity="1" stroke-width="1" stroke-linecap="square" stroke-linejoin="bevel" transform="matrix(1,0,0,1,28,201)"
font-family="Ubuntu" font-size="12.2405" font-weight="630" font-style="normal" 
>
</g>

<g fill="none" stroke="#171717" stroke-opacity="1" stroke-width="1" stroke-linecap="square" stroke-linejoin="bevel" transform="matrix(1,0,0,1,0,0)"
font-family="Ubuntu" font-size="12.2405" font-weight="630" font-style="normal" 
>
</g>

<g fill="none" stroke="#171717" stroke-opacity="1" stroke-width="1" stroke-linecap="square" stroke-linejoin="bevel" transform="matrix(1,0,0,1,28,116)"
font-family="Ubuntu" font-size="12.2405" font-weight="630" font-style="normal" 
>
<text fill="#171717" fill-opacity="1" stroke="none" xml:space="preserve" x="0" y="12" font-family="Ubuntu" font-size="12.2405" font-weight="630" font-style="normal" 
 >16</text>
</g>

<g fill="none" stroke="#171717" stroke-opacity="1" stroke-width="1" stroke-linecap="square" stroke-linejoin="bevel" transform="matrix(1,0,0,1,28,116)"
font-family="Ubuntu" font-size="12.2405" font-weight="630" font-style="normal" 
>
</g>

<g fill="none" stroke="#171717" stroke-opacity="1" stroke-width="1" stroke-linecap="square" stroke-linejoin="bevel" transform="matrix(1,0,0,1,0,0)"
font-family="Ubuntu" font-size="12.2405" font-weight="630" font-style="normal" 
>
</g>

<g fill="none" stroke="#171717" stroke-opacity="1" stroke-width="1" stroke-linecap="square" stroke-linejoin="bevel" transform="matrix(1,0,0,1,28,31)"
font-family="Ubuntu" font-size="12.2405" font-weight="630" font-style="normal" 
>
<text fill="#171717" fill-opacity="1" stroke="none" xml:space="preserve" x="0" y="12" font-family="Ubuntu" font-size="12.2405" font-weight="630" font-style="normal" 
 >18</text>
</g>

<g fill="none" stroke="#171717" stroke-opacity="1" stroke-width="1" stroke-linecap="square" stroke-linejoin="bevel" transform="matrix(1,0,0,1,28,31)"
font-family="Ubuntu" font-size="12.2405" font-weight="630" font-style="normal" 
>
</g>

<g fill="none" stroke="#171717" stroke-opacity="1" stroke-width="1" stroke-linecap="square" stroke-linejoin="bevel" transform="matrix(1,0,0,1,0,0)"
font-family="Ubuntu" font-size="12.2405" font-weight="630" font-style="normal" 
>
</g>

<g fill="none" stroke="#171717" stroke-opacity="1" stroke-width="1" stroke-linecap="square" stroke-linejoin="bevel" transform="matrix(1,0,0,1,0,0)"
font-family="Ubuntu" font-size="12.2405" font-weight="630" font-style="normal" 
>
</g>

<g fill="none" stroke="#000000" stroke-opacity="1" stroke-width="1" stroke-linecap="square" stroke-linejoin="bevel" transform="matrix(1,0,0,1,0,0)"
font-family="Ubuntu" font-size="12.2405" font-weight="630" font-style="normal" 
>
<polyline fill="none" vector-effect="none" points="56,677 51,677 " />
<polyline fill="none" vector-effect="none" points="56,592 51,592 " />
<polyline fill="none" vector-effect="none" points="56,507 51,507 " />
<polyline fill="none" vector-effect="none" points="56,422 51,422 " />
<polyline fill="none" vector-effect="none" points="56,337 51,337 " />
<polyline fill="none" vector-effect="none" points="56,252 51,252 " />
<polyline fill="none" vector-effect="none" points="56,167 51,167 " />
<polyline fill="none" vector-effect="none" points="56,82 51,82 " />
<polyline fill="none" vector-effect="none" points="56,719 47,719 " />
<polyline fill="none" vector-effect="none" points="56,634 47,634 " />
<polyline fill="none" vector-effect="none" points="56,549 47,549 " />
<polyline fill="none" vector-effect="none" points="56,464 47,464 " />
<polyline fill="none" vector-effect="none" points="56,379 47,379 " />
<polyline fill="none" vector-effect="none" points="56,294 47,294 " />
<polyline fill="none" vector-effect="none" points="56,209 47,209 " />
<polyline fill="none" vector-effect="none" points="56,124 47,124 " />
<polyline fill="none" vector-effect="none" points="56,39 47,39 " />
</g>

<g fill="none" stroke="#171717" stroke-opacity="1" stroke-width="1" stroke-linecap="square" stroke-linejoin="bevel" transform="matrix(1,0,0,1,0,0)"
font-family="Ubuntu" font-size="12.2405" font-weight="630" font-style="normal" 
>
</g>

<g fill="none" stroke="#000000" stroke-opacity="1" stroke-width="1" stroke-linecap="square" stroke-linejoin="bevel" transform="matrix(1,0,0,1,0,0)"
font-family="Ubuntu" font-size="12.2405" font-weight="630" font-style="normal" 
>
<polyline fill="none" vector-effect="none" points="56,39 56,719 " />
</g>

<g fill="none" stroke="#171717" stroke-opacity="1" stroke-width="1" stroke-linecap="square" stroke-linejoin="bevel" transform="matrix(1,0,0,1,0,0)"
font-family="Ubuntu" font-size="12.2405" font-weight="630" font-style="normal" 
>
</g>

<g fill="none" stroke="#171717" stroke-opacity="1" stroke-width="1" stroke-linecap="square" stroke-linejoin="bevel" transform="matrix(1,0,0,1,0,0)"
font-family="Ubuntu" font-size="12.2405" font-weight="630" font-style="normal" 
>
</g>

<g fill="none" stroke="#171717" stroke-opacity="1" stroke-width="1" stroke-linecap="square" stroke-linejoin="bevel" transform="matrix(1,0,0,1,0,0)"
font-family="Ubuntu" font-size="18.6667" font-weight="700" font-style="normal" 
>
</g>

<g fill="none" stroke="#171717" stroke-opacity="1" stroke-width="1" stroke-linecap="square" stroke-linejoin="bevel" transform="matrix(1,0,0,1,52,750)"
font-family="Ubuntu" font-size="12.2405" font-weight="630" font-style="normal" 
>
</g>

<g fill="none" stroke="#000000" stroke-opacity="1" stroke-width="1" stroke-linecap="square" stroke-linejoin="bevel" transform="matrix(1,0,0,1,52,750)"
font-family="Ubuntu" font-size="17.8043" font-weight="700" font-style="normal" 
>
<text fill="#000000" fill-opacity="1" stroke="none" xml:space="preserve" x="425.703" y="18" font-family="Ubuntu" font-size="17.8043" font-weight="700" font-style="normal" 
 >Decimal place</text>
</g>

<g fill="none" stroke="#171717" stroke-opacity="1" stroke-width="1" stroke-linecap="square" stroke-linejoin="bevel" transform="matrix(1,0,0,1,52,750)"
font-family="Ubuntu" font-size="12.2405" font-weight="630" font-style="normal" 
>
</g>

<g fill="none" stroke="#171717" stroke-opacity="1" stroke-width="1" stroke-linecap="square" stroke-linejoin="bevel" transform="matrix(1,0,0,1,0,0)"
font-family="Ubuntu" font-size="18.6667" font-weight="700" font-style="normal" 
>
</g>

<g fill="none" stroke="#171717" stroke-opacity="1" stroke-width="1" stroke-linecap="square" stroke-linejoin="bevel" transform="matrix(1,0,0,1,0,0)"
font-family="Ubuntu" font-size="12.2405" font-weight="630" font-style="normal" 
>
</g>

<g fill="none" stroke="#171717" stroke-opacity="1" stroke-width="1" stroke-linecap="square" stroke-linejoin="bevel" transform="matrix(1,0,0,1,0,0)"
font-family="Ubuntu" font-size="12.2405" font-weight="630" font-style="normal" 
>
</g>

<g fill="none" stroke="#171717" stroke-opacity="1" stroke-width="1" stroke-linecap="square" stroke-linejoin="bevel" transform="matrix(1,0,0,1,52,733)"
font-family="Ubuntu" font-size="12.2405" font-weight="630" font-style="normal" 
>
<text fill="#171717" fill-opacity="1" stroke="none" xml:space="preserve" x="0" y="12" font-family="Ubuntu" font-size="12.2405" font-weight="630" font-style="normal" 
 >0</text>
</g>

<g fill="none" stroke="#171717" stroke-opacity="1" stroke-width="1" stroke-linecap="square" stroke-linejoin="bevel" transform="matrix(1,0,0,1,52,733)"
font-family="Ubuntu" font-size="12.2405" font-weight="630" font-style="normal" 
>
</g>

<g fill="none" stroke="#171717" stroke-opacity="1" stroke-width="1" stroke-linecap="square" stroke-linejoin="bevel" transform="matrix(1,0,0,1,0,0)"
font-family="Ubuntu" font-size="12.2405" font-weight="630" font-style="normal" 
>
</g>

<g fill="none" stroke="#171717" stroke-opacity="1" stroke-width="1" stroke-linecap="square" stroke-linejoin="bevel" transform="matrix(1,0,0,1,133,733)"
font-family="Ubuntu" font-size="12.2405" font-weight="630" font-style="normal" 
>
<text fill="#171717" fill-opacity="1" stroke="none" xml:space="preserve" x="0" y="12" font-family="Ubuntu" font-size="12.2405" font-weight="630" font-style="normal" 
 >1</text>
</g>

<g fill="none" stroke="#171717" stroke-opacity="1" stroke-width="1" stroke-linecap="square" stroke-linejoin="bevel" transform="matrix(1,0,0,1,133,733)"
font-family="Ubuntu" font-size="12.2405" font-weight="630" font-style="normal" 
>
</g>

<g fill="none" stroke="#171717" stroke-opacity="1" stroke-width="1" stroke-linecap="square" stroke-linejoin="bevel" transform="matrix(1,0,0,1,0,0)"
font-family="Ubuntu" font-size="12.2405" font-weight="630" font-style="normal" 
>
</g>

<g fill="none" stroke="#171717" stroke-opacity="1" stroke-width="1" stroke-linecap="square" stroke-linejoin="bevel" transform="matrix(1,0,0,1,211,733)"
font-family="Ubuntu" font-size="12.2405" font-weight="630" font-style="normal" 
>
<text fill="#171717" fill-opacity="1" stroke="none" xml:space="preserve" x="0" y="12" font-family="Ubuntu" font-size="12.2405" font-weight="630" font-style="normal" 
 >2</text>
</g>

<g fill="none" stroke="#171717" stroke-opacity="1" stroke-width="1" stroke-linecap="square" stroke-linejoin="bevel" transform="matrix(1,0,0,1,211,733)"
font-family="Ubuntu" font-size="12.2405" font-weight="630" font-style="normal" 
>
</g>

<g fill="none" stroke="#171717" stroke-opacity="1" stroke-width="1" stroke-linecap="square" stroke-linejoin="bevel" transform="matrix(1,0,0,1,0,0)"
font-family="Ubuntu" font-size="12.2405" font-weight="630" font-style="normal" 
>
</g>

<g fill="none" stroke="#171717" stroke-opacity="1" stroke-width="1" stroke-linecap="square" stroke-linejoin="bevel" transform="matrix(1,0,0,1,291,733)"
font-family="Ubuntu" font-size="12.2405" font-weight="630" font-style="normal" 
>
<text fill="#171717" fill-opacity="1" stroke="none" xml:space="preserve" x="0" y="12" font-family="Ubuntu" font-size="12.2405" font-weight="630" font-style="normal" 
 >3</text>
</g>

<g fill="none" stroke="#171717" stroke-opacity="1" stroke-width="1" stroke-linecap="square" stroke-linejoin="bevel" transform="matrix(1,0,0,1,291,733)"
font-family="Ubuntu" font-size="12.2405" font-weight="630" font-style="normal" 
>
</g>

<g fill="none" stroke="#171717" stroke-opacity="1" stroke-width="1" stroke-linecap="square" stroke-linejoin="bevel" transform="matrix(1,0,0,1,0,0)"
font-family="Ubuntu" font-size="12.2405" font-weight="630" font-style="normal" 
>
</g>

<g fill="none" stroke="#171717" stroke-opacity="1" stroke-width="1" stroke-linecap="square" stroke-linejoin="bevel" transform="matrix(1,0,0,1,370,733)"
font-family="Ubuntu" font-size="12.2405" font-weight="630" font-style="normal" 
>
<text fill="#171717" fill-opacity="1" stroke="none" xml:space="preserve" x="0" y="12" font-family="Ubuntu" font-size="12.2405" font-weight="630" font-style="normal" 
 >4</text>
</g>

<g fill="none" stroke="#171717" stroke-opacity="1" stroke-width="1" stroke-linecap="square" stroke-linejoin="bevel" transform="matrix(1,0,0,1,370,733)"
font-family="Ubuntu" font-size="12.2405" font-weight="630" font-style="normal" 
>
</g>

<g fill="none" stroke="#171717" stroke-opacity="1" stroke-width="1" stroke-linecap="square" stroke-linejoin="bevel" transform="matrix(1,0,0,1,0,0)"
font-family="Ubuntu" font-size="12.2405" font-weight="630" font-style="normal" 
>
</g>

<g fill="none" stroke="#171717" stroke-opacity="1" stroke-width="1" stroke-linecap="square" stroke-linejoin="bevel" transform="matrix(1,0,0,1,450,733)"
font-family="Ubuntu" font-size="12.2405" font-weight="630" font-style="normal" 
>
<text fill="#171717" fill-opacity="1" stroke="none" xml:space="preserve" x="0" y="12" font-family="Ubuntu" font-size="12.2405" font-weight="630" font-style="normal" 
 >5</text>
</g>

<g fill="none" stroke="#171717" stroke-opacity="1" stroke-width="1" stroke-linecap="square" stroke-linejoin="bevel" transform="matrix(1,0,0,1,450,733)"
font-family="Ubuntu" font-size="12.2405" font-weight="630" font-style="normal" 
>
</g>

<g fill="none" stroke="#171717" stroke-opacity="1" stroke-width="1" stroke-linecap="square" stroke-linejoin="bevel" transform="matrix(1,0,0,1,0,0)"
font-family="Ubuntu" font-size="12.2405" font-weight="630" font-style="normal" 
>
</g>

<g fill="none" stroke="#171717" stroke-opacity="1" stroke-width="1" stroke-linecap="square" stroke-linejoin="bevel" transform="matrix(1,0,0,1,529,733)"
font-family="Ubuntu" font-size="12.2405" font-weight="630" font-style="normal" 
>
<text fill="#171717" fill-opacity="1" stroke="none" xml:space="preserve" x="0" y="12" font-family="Ubuntu" font-size="12.2405" font-weight="630" font-style="normal" 
 >6</text>
</g>

<g fill="none" stroke="#171717" stroke-opacity="1" stroke-width="1" stroke-linecap="square" stroke-linejoin="bevel" transform="matrix(1,0,0,1,529,733)"
font-family="Ubuntu" font-size="12.2405" font-weight="630" font-style="normal" 
>
</g>

<g fill="none" stroke="#171717" stroke-opacity="1" stroke-width="1" stroke-linecap="square" stroke-linejoin="bevel" transform="matrix(1,0,0,1,0,0)"
font-family="Ubuntu" font-size="12.2405" font-weight="630" font-style="normal" 
>
</g>

<g fill="none" stroke="#171717" stroke-opacity="1" stroke-width="1" stroke-linecap="square" stroke-linejoin="bevel" transform="matrix(1,0,0,1,609,733)"
font-family="Ubuntu" font-size="12.2405" font-weight="630" font-style="normal" 
>
<text fill="#171717" fill-opacity="1" stroke="none" xml:space="preserve" x="0" y="12" font-family="Ubuntu" font-size="12.2405" font-weight="630" font-style="normal" 
 >7</text>
</g>

<g fill="none" stroke="#171717" stroke-opacity="1" stroke-width="1" stroke-linecap="square" stroke-linejoin="bevel" transform="matrix(1,0,0,1,609,733)"
font-family="Ubuntu" font-size="12.2405" font-weight="630" font-style="normal" 
>
</g>

<g fill="none" stroke="#171717" stroke-opacity="1" stroke-width="1" stroke-linecap="square" stroke-linejoin="bevel" transform="matrix(1,0,0,1,0,0)"
font-family="Ubuntu" font-size="12.2405" font-weight="630" font-style="normal" 
>
</g>

<g fill="none" stroke="#171717" stroke-opacity="1" stroke-width="1" stroke-linecap="square" stroke-linejoin="bevel" transform="matrix(1,0,0,1,688,733)"
font-family="Ubuntu" font-size="12.2405" font-weight="630" font-style="normal" 
>
<text fill="#171717" fill-opacity="1" stroke="none" xml:space="preserve" x="0" y="12" font-family="Ubuntu" font-size="12.2405" font-weight="630" font-style="normal" 
 >8</text>
</g>

<g fill="none" stroke="#171717" stroke-opacity="1" stroke-width="1" stroke-linecap="square" stroke-linejoin="bevel" transform="matrix(1,0,0,1,688,733)"
font-family="Ubuntu" font-size="12.2405" font-weight="630" font-style="normal" 
>
</g>

<g fill="none" stroke="#171717" stroke-opacity="1" stroke-width="1" stroke-linecap="square" stroke-linejoin="bevel" transform="matrix(1,0,0,1,0,0)"
font-family="Ubuntu" font-size="12.2405" font-weight="630" font-style="normal" 
>
</g>

<g fill="none" stroke="#171717" stroke-opacity="1" stroke-width="1" stroke-linecap="square" stroke-linejoin="bevel" transform="matrix(1,0,0,1,768,733)"
font-family="Ubuntu" font-size="12.2405" font-weight="630" font-style="normal" 
>
<text fill="#171717" fill-opacity="1" stroke="none" xml:space="preserve" x="0" y="12" font-family="Ubuntu" font-size="12.2405" font-weight="630" font-style="normal" 
 >9</text>
</g>

<g fill="none" stroke="#171717" stroke-opacity="1" stroke-width="1" stroke-linecap="square" stroke-linejoin="bevel" transform="matrix(1,0,0,1,768,733)"
font-family="Ubuntu" font-size="12.2405" font-weight="630" font-style="normal" 
>
</g>

<g fill="none" stroke="#171717" stroke-opacity="1" stroke-width="1" stroke-linecap="square" stroke-linejoin="bevel" transform="matrix(1,0,0,1,0,0)"
font-family="Ubuntu" font-size="12.2405" font-weight="630" font-style="normal" 
>
</g>

<g fill="none" stroke="#171717" stroke-opacity="1" stroke-width="1" stroke-linecap="square" stroke-linejoin="bevel" transform="matrix(1,0,0,1,844,733)"
font-family="Ubuntu" font-size="12.2405" font-weight="630" font-style="normal" 
>
<text fill="#171717" fill-opacity="1" stroke="none" xml:space="preserve" x="0" y="12" font-family="Ubuntu" font-size="12.2405" font-weight="630" font-style="normal" 
 >10</text>
</g>

<g fill="none" stroke="#171717" stroke-opacity="1" stroke-width="1" stroke-linecap="square" stroke-linejoin="bevel" transform="matrix(1,0,0,1,844,733)"
font-family="Ubuntu" font-size="12.2405" font-weight="630" font-style="normal" 
>
</g>

<g fill="none" stroke="#171717" stroke-opacity="1" stroke-width="1" stroke-linecap="square" stroke-linejoin="bevel" transform="matrix(1,0,0,1,0,0)"
font-family="Ubuntu" font-size="12.2405" font-weight="630" font-style="normal" 
>
</g>

<g fill="none" stroke="#171717" stroke-opacity="1" stroke-width="1" stroke-linecap="square" stroke-linejoin="bevel" transform="matrix(1,0,0,1,924,733)"
font-family="Ubuntu" font-size="12.2405" font-weight="630" font-style="normal" 
>
<text fill="#171717" fill-opacity="1" stroke="none" xml:space="preserve" x="0" y="12" font-family="Ubuntu" font-size="12.2405" font-weight="630" font-style="normal" 
 >11</text>
</g>

<g fill="none" stroke="#171717" stroke-opacity="1" stroke-width="1" stroke-linecap="square" stroke-linejoin="bevel" transform="matrix(1,0,0,1,924,733)"
font-family="Ubuntu" font-size="12.2405" font-weight="630" font-style="normal" 
>
</g>

<g fill="none" stroke="#171717" stroke-opacity="1" stroke-width="1" stroke-linecap="square" stroke-linejoin="bevel" transform="matrix(1,0,0,1,0,0)"
font-family="Ubuntu" font-size="12.2405" font-weight="630" font-style="normal" 
>
</g>

<g fill="none" stroke="#171717" stroke-opacity="1" stroke-width="1" stroke-linecap="square" stroke-linejoin="bevel" transform="matrix(1,0,0,1,1003,733)"
font-family="Ubuntu" font-size="12.2405" font-weight="630" font-style="normal" 
>
<text fill="#171717" fill-opacity="1" stroke="none" xml:space="preserve" x="0" y="12" font-family="Ubuntu" font-size="12.2405" font-weight="630" font-style="normal" 
 >12</text>
</g>

<g fill="none" stroke="#171717" stroke-opacity="1" stroke-width="1" stroke-linecap="square" stroke-linejoin="bevel" transform="matrix(1,0,0,1,1003,733)"
font-family="Ubuntu" font-size="12.2405" font-weight="630" font-style="normal" 
>
</g>

<g fill="none" stroke="#171717" stroke-opacity="1" stroke-width="1" stroke-linecap="square" stroke-linejoin="bevel" transform="matrix(1,0,0,1,0,0)"
font-family="Ubuntu" font-size="12.2405" font-weight="630" font-style="normal" 
>
</g>

<g fill="none" stroke="#171717" stroke-opacity="1" stroke-width="1" stroke-linecap="square" stroke-linejoin="bevel" transform="matrix(1,0,0,1,0,0)"
font-family="Ubuntu" font-size="12.2405" font-weight="630" font-style="normal" 
>
</g>

<g fill="none" stroke="#000000" stroke-opacity="1" stroke-width="1" stroke-linecap="square" stroke-linejoin="bevel" transform="matrix(1,0,0,1,0,0)"
font-family="Ubuntu" font-size="12.2405" font-weight="630" font-style="normal" 
>
<polyline fill="none" vector-effect="none" points="56,719 56,728 " />
<polyline fill="none" vector-effect="none" points="136,719 136,728 " />
<polyline fill="none" vector-effect="none" points="215,719 215,728 " />
<polyline fill="none" vector-effect="none" points="295,719 295,728 " />
<polyline fill="none" vector-effect="none" points="374,719 374,728 " />
<polyline fill="none" vector-effect="none" points="454,719 454,728 " />
<polyline fill="none" vector-effect="none" points="533,719 533,728 " />
<polyline fill="none" vector-effect="none" points="613,719 613,728 " />
<polyline fill="none" vector-effect="none" points="692,719 692,728 " />
<polyline fill="none" vector-effect="none" points="772,719 772,728 " />
<polyline fill="none" vector-effect="none" points="851,719 851,728 " />
<polyline fill="none" vector-effect="none" points="931,719 931,728 " />
<polyline fill="none" vector-effect="none" points="1010,719 1010,728 " />
</g>

<g fill="none" stroke="#171717" stroke-opacity="1" stroke-width="1" stroke-linecap="square" stroke-linejoin="bevel" transform="matrix(1,0,0,1,0,0)"
font-family="Ubuntu" font-size="12.2405" font-weight="630" font-style="normal" 
>
</g>

<g fill="none" stroke="#000000" stroke-opacity="1" stroke-width="1" stroke-linecap="square" stroke-linejoin="bevel" transform="matrix(1,0,0,1,0,0)"
font-family="Ubuntu" font-size="12.2405" font-weight="630" font-style="normal" 
>
<polyline fill="none" vector-effect="none" points="56,719 1010,719 " />
</g>

<g fill="none" stroke="#171717" stroke-opacity="1" stroke-width="1" stroke-linecap="square" stroke-linejoin="bevel" transform="matrix(1,0,0,1,0,0)"
font-family="Ubuntu" font-size="12.2405" font-weight="630" font-style="normal" 
>
</g>

<g fill="none" stroke="#171717" stroke-opacity="1" stroke-width="1" stroke-linecap="square" stroke-linejoin="bevel" transform="matrix(1,0,0,1,0,0)"
font-family="Ubuntu" font-size="12.2405" font-weight="630" font-style="normal" 
>
</g>

<g fill="none" stroke="#171717" stroke-opacity="1" stroke-width="1" stroke-linecap="square" stroke-linejoin="bevel" transform="matrix(1,0,0,1,0,0)"
font-family="Ubuntu" font-size="18.6667" font-weight="700" font-style="normal" 
>
</g>

<g fill="none" stroke="#171717" stroke-opacity="1" stroke-width="1" stroke-linecap="square" stroke-linejoin="bevel" transform="matrix(1,0,0,1,0,0)"
font-family="Ubuntu" font-size="18.6667" font-weight="700" font-style="normal" 
>
</g>

<g fill="none" stroke="#171717" stroke-opacity="1" stroke-width="1" stroke-linecap="square" stroke-linejoin="bevel" transform="matrix(1,0,0,1,66,49)"
font-family="Ubuntu" font-size="18.6667" font-weight="700" font-style="normal" 
>
</g>

<g fill="none" stroke="#171717" stroke-opacity="1" stroke-width="1" stroke-linecap="square" stroke-linejoin="bevel" transform="matrix(1,0,0,1,66,49)"
font-family="Ubuntu" font-size="18.6667" font-weight="700" font-style="normal" 
>
</g>

<g fill="none" stroke="#000000" stroke-opacity="1" stroke-width="1" stroke-linecap="square" stroke-linejoin="miter" stroke-miterlimit="2" transform="matrix(1,0,0,1,66,49)"
font-family="Ubuntu" font-size="18.6667" font-weight="700" font-style="normal" 
>
<polyline fill="none" vector-effect="non-scaling-stroke" points="11,16 43,16 " />
</g>

<g fill="none" stroke="#171717" stroke-opacity="1" stroke-width="1" stroke-linecap="square" stroke-linejoin="bevel" transform="matrix(1,0,0,1,66,49)"
font-family="Ubuntu" font-size="18.6667" font-weight="700" font-style="normal" 
>
</g>

<g fill="none" stroke="#000000" stroke-opacity="1" stroke-width="1" stroke-linecap="square" stroke-linejoin="bevel" transform="matrix(1,0,0,1,66,49)"
font-family="Ubuntu" font-size="17.8043" font-weight="630" font-style="normal" 
>
<text fill="#000000" fill-opacity="1" stroke="none" xml:space="preserve" x="53" y="23" font-family="Ubuntu" font-size="17.8043" font-weight="630" font-style="normal" 
 >Trapezoidal</text>
</g>

<g fill="none" stroke="#171717" stroke-opacity="1" stroke-width="1" stroke-linecap="square" stroke-linejoin="bevel" transform="matrix(1,0,0,1,66,49)"
font-family="Ubuntu" font-size="18.6667" font-weight="700" font-style="normal" 
>
</g>

<g fill="none" stroke="#171717" stroke-opacity="1" stroke-width="1" stroke-linecap="square" stroke-linejoin="bevel" transform="matrix(1,0,0,1,66,49)"
font-family="Ubuntu" font-size="18.6667" font-weight="700" font-style="normal" 
>
</g>

<g fill="none" stroke="#ff0000" stroke-opacity="1" stroke-width="1" stroke-linecap="square" stroke-linejoin="miter" stroke-miterlimit="2" transform="matrix(1,0,0,1,66,49)"
font-family="Ubuntu" font-size="18.6667" font-weight="700" font-style="normal" 
>
<polyline fill="none" vector-effect="non-scaling-stroke" points="11,37 43,37 " />
</g>

<g fill="none" stroke="#171717" stroke-opacity="1" stroke-width="1" stroke-linecap="square" stroke-linejoin="bevel" transform="matrix(1,0,0,1,66,49)"
font-family="Ubuntu" font-size="18.6667" font-weight="700" font-style="normal" 
>
</g>

<g fill="none" stroke="#000000" stroke-opacity="1" stroke-width="1" stroke-linecap="square" stroke-linejoin="bevel" transform="matrix(1,0,0,1,66,49)"
font-family="Ubuntu" font-size="17.8043" font-weight="630" font-style="normal" 
>
<text fill="#000000" fill-opacity="1" stroke="none" xml:space="preserve" x="53" y="44" font-family="Ubuntu" font-size="17.8043" font-weight="630" font-style="normal" 
 >Simpson</text>
</g>

<g fill="none" stroke="#171717" stroke-opacity="1" stroke-width="1" stroke-linecap="square" stroke-linejoin="bevel" transform="matrix(1,0,0,1,66,49)"
font-family="Ubuntu" font-size="18.6667" font-weight="700" font-style="normal" 
>
</g>

<g fill="none" stroke="#171717" stroke-opacity="1" stroke-width="1" stroke-linecap="square" stroke-linejoin="bevel" transform="matrix(1,0,0,1,0,0)"
font-family="Ubuntu" font-size="18.6667" font-weight="700" font-style="normal" 
>
</g>

<g fill="none" stroke="#000000" stroke-opacity="1" stroke-width="1" stroke-linecap="square" stroke-linejoin="bevel" transform="matrix(1,0,0,1,0,0)"
font-family="Ubuntu" font-size="14.6667" font-weight="400" font-style="normal" 
>
</g>
</g>
</svg>
